<?xml version="1.0" encoding="UTF-8"?><svg id="Layer_1" xmlns="http://www.w3.org/2000/svg" viewBox="0 0 109.49 110.75"><defs><style>.cls-1{fill:#482878;}.cls-2{fill:#fff;opacity:.94;}.cls-3{fill:#26828e;}.cls-4{fill:#3e4989;}.cls-5{fill:#fde725;}.cls-6{fill:#6ece58;}</style></defs><g id="Icon"><path d="M105.39,40.15L57.48,6.06c-1.87-1.33-4.38-1.33-6.25,0h0L3.3,40.15c-1.94,1.37-2.75,3.85-2,6.1l18.28,55.04c.73,2.21,2.8,3.7,5.12,3.7h59.28c2.33,0,4.39-1.49,5.12-3.7l18.28-55.04c.76-2.25-.06-4.73-1.99-6.1ZM102.08,42.21l-9.72,3.24c-2.03-2.07-5.34-2.14-7.47-.18l-25.22-13.27c.38-2.54-1.1-4.99-3.52-5.83V9.53l45.93,32.67ZM58,35.18l25.2,13.26s-.01.04-.01.06l-27.04,9.01v-21.22c.68-.24,1.31-.62,1.85-1.11ZM75.94,90.6c-.99,0-1.8-.81-1.8-1.8s.81-1.8,1.8-1.8,1.8.81,1.8,1.8c0,.99-.81,1.8-1.8,1.8ZM71.16,86.33l-29.52-4.03c-.11-.49-.29-.96-.53-1.4l13.24-17.88,17.09,22.79c-.1.17-.2.34-.28.52ZM36.36,85.2c-.99,0-1.8-.81-1.8-1.8s.81-1.8,1.8-1.8,1.8.81,1.8,1.8c0,.99-.81,1.8-1.8,1.8ZM54.35,29.43c.99,0,1.8.81,1.8,1.8s-.81,1.8-1.8,1.8-1.8-.81-1.8-1.8c0-.99.81-1.8,1.8-1.8ZM51.31,35.69c.38.26.8.46,1.24.61v21.22l-18.47-6.16c-.02-.88-.27-1.75-.71-2.52l17.94-13.16ZM30.49,51.49c0,.99-.81,1.8-1.8,1.8s-1.8-.81-1.8-1.8.81-1.8,1.8-1.8c.99,0,1.8.81,1.8,1.8ZM32.94,54.78l18.48,6.16-12.96,17.5c-.55-.23-1.13-.36-1.73-.39l-5.99-21.57c.87-.37,1.62-.95,2.2-1.7ZM35.34,88.7c2.34.44,4.7-.71,5.79-2.83l29.52,4.03c.61,2.91,3.47,4.78,6.38,4.16.17-.04.34-.08.5-.13l5.6,7.46H25.94l9.4-12.7ZM75.76,83.42c-.48.02-.96.1-1.42.25l-17.05-22.74,26.67-8.89c.35.56.79,1.06,1.32,1.46l-9.52,29.92ZM87.95,50.93c-.94-.32-1.45-1.34-1.13-2.28s1.34-1.45,2.28-1.13c.94.32,1.45,1.34,1.13,2.28-.32.94-1.34,1.45-2.28,1.13h0ZM52.55,9.53v16.63c-2.7.95-4.18,3.86-3.35,6.61l-18.64,13.67c-2.19-.82-4.65-.12-6.08,1.72l-17.86-5.95L52.55,9.53ZM4.82,45.4l18.49,6.16c.04,2.31,1.54,4.33,3.74,5.04l6.22,22.39c-2.43,1.73-3,5.1-1.28,7.53.08.11.16.22.25.32l-9.43,12.73L4.82,45.4ZM86.01,99.23l-5.58-7.44c1.56-2.37,1.02-5.55-1.24-7.27l9.52-29.92c2.98-.11,5.31-2.62,5.2-5.6,0-.09,0-.18-.02-.27l9.98-3.33-17.87,53.83Z"/></g><rect class="cls-2" x="36.9" y="40.36" width="39.91" height="39.91" rx="12.09" ry="12.09"/><path d="M48.11,52.92v3.1c-.68.24-1.23.73-1.55,1.4l-1.33,2.85c-.86,1.84-.44,4.01,1.03,5.41l3.86,3.66v6.18c0,.37.3.67.67.67h3.02c.37,0,.67-.3.67-.67s-.3-.67-.67-.67h-2.35v-5.79c0-.18-.08-.36-.21-.49l-4.07-3.85c-1.05-1-1.35-2.55-.74-3.86l1.33-2.85c.32-.69,1.13-.96,1.79-.65l6.64,3.1c-.93,1.26-2.65,1.73-4.12,1.05l-1.83-.85c-.34-.16-.74-.01-.89.33-.16.34-.01.74.33.89l1.83.85c.75.35,1.59.5,2.46.42,1.42,1.53,2.2,3.51,2.2,5.61,0,.37.3.67.67.67s.67-.3.67-.67c0-2.21-.74-4.3-2.1-6,1-.45,1.85-1.24,2.35-2.31,0,0,0,0,0,0,.33.15.7.23,1.09.23.6,0,1.15-.2,1.6-.53.43.91,1.36,1.54,2.43,1.54.41,0,.81-.09,1.16-.26-.19,1.21-.49,2.31-.8,3.45-.51,1.86-1.03,3.77-1.03,6.23v3.76h-2.35c-.37,0-.67.3-.67.67s.3.67.67.67h3.02c.37,0,.67-.3.67-.67v-4.44c0-2.27.48-4.02.98-5.87.51-1.86,1.03-3.77,1.03-6.23v-4.03c0-1.48-1.21-2.69-2.69-2.69-.6,0-1.15.2-1.6.53-.43-.91-1.36-1.54-2.43-1.54-.6,0-1.15.2-1.6.53-.43-.91-1.36-1.54-2.43-1.54-.8,0-1.52.35-2.02.91-.49-.56-1.21-.91-2.02-.91-1.48,0-2.69,1.21-2.69,2.69h0ZM61.56,54.93c0-.74.6-1.34,1.34-1.34s1.34.6,1.34,1.34v4.03c0,.74-.6,1.34-1.34,1.34s-1.34-.6-1.34-1.34v-4.03ZM57.52,53.93c0-.74.6-1.34,1.34-1.34s1.34.6,1.34,1.34v4.03c0,.74-.6,1.34-1.34,1.34s-1.34-.6-1.34-1.34v-4.03ZM53.49,52.92c0-.74.6-1.34,1.34-1.34s1.34.6,1.34,1.34v5.04c0,.38.08.75.23,1.08l-2.91-1.36v-4.76ZM49.46,52.92c0-.74.6-1.34,1.34-1.34s1.34.6,1.34,1.34v4.13l-2.01-.94c-.22-.1-.45-.17-.68-.21v-2.98Z"/><path class="cls-5" d="M57.52,44.85v-2.42c0-.37-.3-.67-.67-.67s-.67.3-.67.67v2.42c0,.37.3.67.67.67s.67-.3.67-.67Z"/><path class="cls-6" d="M51.14,47.05c.32-.19.43-.6.25-.92l-1.01-1.75c-.19-.32-.6-.43-.92-.25s-.43.6-.25.92l1.01,1.75c.18.32.6.43.92.25Z"/><path class="cls-3" d="M45.7,50.32l-1.75-1.01c-.32-.19-.73-.08-.92.25-.19.32-.08.73.25.92l1.75,1.01c.32.18.73.08.92-.25.19-.32.08-.73-.25-.92Z"/><path class="cls-4" d="M63.48,46.81l1.01-1.75c.19-.32.08-.73-.25-.92-.32-.19-.73-.08-.92.25l-1.01,1.75c-.19.32-.08.73.25.92.32.18.73.08.92-.25Z"/><path class="cls-1" d="M68.67,51.48l1.75-1.01c.32-.19.43-.6.25-.92-.19-.32-.6-.43-.92-.25l-1.75,1.01c-.32.19-.43.6-.25.92.18.32.6.43.92.25h0Z"/><circle cx="56.85" cy="75.5" r=".67"/><circle class="cls-1" cx="36.27" cy="83.39" r="2.41"/><circle class="cls-4" cx="76.18" cy="88.79" r="2.41"/><circle class="cls-3" cx="28.4" cy="51.19" r="2.41"/><circle class="cls-6" cx="54.23" cy="30.89" r="2.41"/><circle class="cls-5" cx="88.74" cy="49.08" r="2.41"/></svg>